<?xml version="1.0" encoding="UTF-8"?>
<!DOCTYPE svg PUBLIC "-//W3C//DTD SVG 1.1//EN" "http://www.w3.org/Graphics/SVG/1.1/DTD/svg11.dtd">
<svg xmlns="http://www.w3.org/2000/svg" version="1.1" width="451px" height="104px" style="shape-rendering:geometricPrecision; text-rendering:geometricPrecision; image-rendering:optimizeQuality; fill-rule:evenodd; clip-rule:evenodd" xmlns:xlink="http://www.w3.org/1999/xlink">
<g><path style="opacity:1" fill="#090909" d="M 387.5,91.5 C 334.499,91.6667 281.499,91.5 228.5,91C 235.753,89.2483 240.086,84.7483 241.5,77.5C 242.495,66.012 242.828,54.3453 242.5,42.5C 238.298,42.1832 234.298,42.5166 230.5,43.5C 230.649,44.552 230.483,45.552 230,46.5C 228.2,44.683 226.034,43.5163 223.5,43C 219.93,42.7382 216.597,42.5715 213.5,42.5C 217.069,35.6976 220.902,29.0309 225,22.5C 229.467,16.8492 235.301,13.6825 242.5,13C 306.167,12.3333 369.833,12.3333 433.5,13C 437.592,14.0942 439.926,16.7608 440.5,21C 439.724,23.9947 438.557,26.828 437,29.5C 426.667,46.8333 416.333,64.1667 406,81.5C 401.419,87.8724 395.252,91.2058 387.5,91.5 Z"/></g>
<g><path style="opacity:0.094" fill="#d3f4e3" d="M 21.5,78.5 C 21.5,62.1667 21.5,45.8333 21.5,29.5C 17.8333,29.5 14.1667,29.5 10.5,29.5C 10.5,45.8333 10.5,62.1667 10.5,78.5C 9.50348,62.0084 9.17015,45.3417 9.5,28.5C 13.8333,28.5 18.1667,28.5 22.5,28.5C 22.8298,45.3417 22.4965,62.0084 21.5,78.5 Z"/></g>
<g><path style="opacity:1" fill="#00bf62" d="M 21.5,78.5 C 17.8333,78.5 14.1667,78.5 10.5,78.5C 10.5,62.1667 10.5,45.8333 10.5,29.5C 14.1667,29.5 17.8333,29.5 21.5,29.5C 21.5,45.8333 21.5,62.1667 21.5,78.5 Z"/></g>
<g><path style="opacity:1" fill="#29c36d" d="M 89.5,43.5 C 94.0323,43.1818 98.3656,43.5151 102.5,44.5C 98.6697,48.4986 95.003,52.6653 91.5,57C 95.7084,63.9179 100.042,70.7512 104.5,77.5C 99.5,78.8333 94.5,78.8333 89.5,77.5C 87.4026,73.6277 85.0692,69.961 82.5,66.5C 81.5224,66.9767 80.6891,67.6433 80,68.5C 79.5017,71.8168 79.335,75.1501 79.5,78.5C 75.5,78.5 71.5,78.5 67.5,78.5C 67.5,61.8333 67.5,45.1667 67.5,28.5C 71.5,28.5 75.5,28.5 79.5,28.5C 79.3336,36.84 79.5003,45.1733 80,53.5C 83.3986,50.2711 86.5653,46.9378 89.5,43.5 Z"/></g>
<g><path style="opacity:1" fill="#f5f5f5" d="M 309.5,29.5 C 313.5,29.5 317.5,29.5 321.5,29.5C 321.334,37.84 321.5,46.1733 322,54.5C 325.869,50.9662 329.369,47.1328 332.5,43C 336.871,42.1725 341.205,42.3391 345.5,43.5C 341.301,47.8629 337.301,52.3629 333.5,57C 337.818,63.9898 342.151,70.9898 346.5,78C 341.798,78.8283 337.131,78.6616 332.5,77.5C 330.25,73.3318 327.75,69.3318 325,65.5C 324,66.5 323,67.5 322,68.5C 321.502,71.8168 321.335,75.1501 321.5,78.5C 317.5,78.5 313.5,78.5 309.5,78.5C 309.5,62.1667 309.5,45.8333 309.5,29.5 Z"/></g>
<g><path style="opacity:0.659" fill="#72dba5" d="M 89.5,43.5 C 94.3158,42.3503 99.3158,42.1837 104.5,43C 103.956,43.7172 103.289,44.2172 102.5,44.5C 98.3656,43.5151 94.0323,43.1818 89.5,43.5 Z"/></g>
<g><path style="opacity:1" fill="#2dc36e" d="M 136.5,51.5 C 136.5,60.5 136.5,69.5 136.5,78.5C 132.241,78.9975 128.241,78.3308 124.5,76.5C 117.108,80.9929 110.274,80.3263 104,74.5C 99.9994,65.708 102.499,59.8747 111.5,57C 116.167,56.6667 120.833,56.3333 125.5,56C 124.833,54 123.5,52.6667 121.5,52C 118.132,51.4572 114.799,51.6239 111.5,52.5C 109.708,52.634 108.042,52.3007 106.5,51.5C 104.864,49.6165 104.531,47.6165 105.5,45.5C 114.012,41.3535 122.679,40.8535 131.5,44C 134.242,45.8864 135.909,48.3864 136.5,51.5 Z M 116.5,63.5 C 119.5,63.5 122.5,63.5 125.5,63.5C 124.736,69.392 121.402,71.5587 115.5,70C 112.777,67.3413 113.11,65.1747 116.5,63.5 Z"/></g>
<g><path style="opacity:1" fill="#3dc675" d="M 169.5,69.5 C 168.167,69.8333 168.167,70.1667 169.5,70.5C 169.5,73.1667 169.5,75.8333 169.5,78.5C 168.691,76.7078 168.191,74.7078 168,72.5C 165.831,76.0103 162.664,78.177 158.5,79C 151.579,80.3063 145.246,79.1397 139.5,75.5C 139.082,74.7784 138.416,74.2784 137.5,74C 138.252,73.3292 138.586,72.4959 138.5,71.5C 138.738,69.3551 139.738,67.6885 141.5,66.5C 146.532,70.2568 151.865,71.0901 157.5,69C 156.449,67.6152 155.116,66.6152 153.5,66C 149.757,64.8635 146.09,63.5302 142.5,62C 135.92,50.0007 139.586,43.1674 153.5,41.5C 158.648,41.8265 163.481,43.1599 168,45.5C 167.993,48.8628 166.827,51.8628 164.5,54.5C 161.113,52.4031 157.447,51.0698 153.5,50.5C 149.551,51.8126 149.551,53.3126 153.5,55C 162.92,55.595 168.253,60.4284 169.5,69.5 Z"/></g>
<g><path style="opacity:0.659" fill="#6bd9a2" d="M 169.5,43.5 C 179.987,42.5056 190.654,42.1722 201.5,42.5C 201.806,45.3854 201.473,48.0521 200.5,50.5C 200.5,48.1667 200.5,45.8333 200.5,43.5C 190.167,43.5 179.833,43.5 169.5,43.5 Z"/></g>
<g><path style="opacity:0.853" fill="#f9f9f9" d="M 213.5,42.5 C 216.597,42.5715 219.93,42.7382 223.5,43C 226.034,43.5163 228.2,44.683 230,46.5C 230.483,45.552 230.649,44.552 230.5,43.5C 234.167,43.5 237.833,43.5 241.5,43.5C 241.5,54.8333 241.5,66.1667 241.5,77.5C 240.086,84.7483 235.753,89.2483 228.5,91C 281.499,91.5 334.499,91.6667 387.5,91.5C 323.833,92.8333 260.167,92.8333 196.5,91.5C 202.509,91.6662 208.509,91.4995 214.5,91C 211.554,90.1939 208.888,88.8605 206.5,87C 207.874,84.4171 209.374,81.9171 211,79.5C 215.781,82.3626 220.948,83.196 226.5,82C 229.792,79.5881 230.959,76.4214 230,72.5C 222.075,78.3427 214.742,77.676 208,70.5C 206.337,66.7871 204.837,63.1204 203.5,59.5C 204.011,52.1419 207.344,46.4752 213.5,42.5 Z"/></g>
<g><path style="opacity:1" fill="#f8f8f8" d="M 256.5,42.5 C 276.849,40.6763 285.016,49.6763 281,69.5C 278.545,74.1492 274.712,76.9826 269.5,78C 252.388,80.8803 243.888,73.7137 244,56.5C 245.926,49.7448 250.093,45.0781 256.5,42.5 Z"/></g>
<g><path style="opacity:1" fill="#fbfbfb" d="M 285.5,78.5 C 285.5,66.8333 285.5,55.1667 285.5,43.5C 289.167,43.5 292.833,43.5 296.5,43.5C 296.34,45.1992 296.506,46.8659 297,48.5C 299.617,44.2742 303.45,42.2742 308.5,42.5C 308.5,45.8333 308.5,49.1667 308.5,52.5C 303.653,51.8404 299.819,53.5071 297,57.5C 296.5,64.4921 296.334,71.4921 296.5,78.5C 292.833,78.5 289.167,78.5 285.5,78.5 Z"/></g>
<g><path style="opacity:1" fill="#f4f4f4" d="M 355.5,42.5 C 360.511,42.3341 365.511,42.5007 370.5,43C 374.667,44.5 377.5,47.3333 379,51.5C 379.5,60.4938 379.666,69.4938 379.5,78.5C 375.5,78.5 371.5,78.5 367.5,78.5C 367.649,77.448 367.483,76.448 367,75.5C 366.097,76.7014 364.931,77.5348 363.5,78C 353.175,81.1796 346.842,77.6796 344.5,67.5C 345.082,63.0795 347.415,59.9129 351.5,58C 356.823,57.5006 362.156,57.334 367.5,57.5C 367.822,55.2776 367.155,53.4443 365.5,52C 360.004,51.151 354.671,51.651 349.5,53.5C 348.833,50.8333 348.167,48.1667 347.5,45.5C 350.443,45.0198 353.11,44.0198 355.5,42.5 Z"/></g>
<g><path style="opacity:1" fill="#2ec36e" d="M 50.5,43.5 C 54.1667,43.5 57.8333,43.5 61.5,43.5C 61.5,55.1667 61.5,66.8333 61.5,78.5C 57.8333,78.5 54.1667,78.5 50.5,78.5C 50.6567,77.1266 50.49,75.7932 50,74.5C 42.6982,81.0901 35.3648,81.0901 28,74.5C 27.0266,72.6079 26.3599,70.6079 26,68.5C 25.5002,59.8397 25.3336,51.1731 25.5,42.5C 29.8333,42.5 34.1667,42.5 38.5,42.5C 38.3336,50.1739 38.5003,57.8406 39,65.5C 44.5089,69.9273 48.1756,68.594 50,61.5C 50.4995,55.5092 50.6662,49.5092 50.5,43.5 Z"/></g>
<g><path style="opacity:0.533" fill="#72dba8" d="M 50.5,43.5 C 54.2984,42.5166 58.2984,42.1832 62.5,42.5C 62.8284,54.6783 62.4951,66.6783 61.5,78.5C 61.5,66.8333 61.5,55.1667 61.5,43.5C 57.8333,43.5 54.1667,43.5 50.5,43.5 Z"/></g>
<g><path style="opacity:1" fill="#21c169" d="M 169.5,43.5 C 179.833,43.5 190.167,43.5 200.5,43.5C 200.5,45.8333 200.5,48.1667 200.5,50.5C 195.376,56.7947 190.043,62.9613 184.5,69C 189.252,69.7734 193.919,69.6068 198.5,68.5C 199.209,69.404 200.209,69.7373 201.5,69.5C 201.5,72.5 201.5,75.5 201.5,78.5C 198.167,78.5 194.833,78.5 191.5,78.5C 184.167,78.5 176.833,78.5 169.5,78.5C 169.5,75.8333 169.5,73.1667 169.5,70.5C 169.5,70.1667 169.5,69.8333 169.5,69.5C 174.967,63.8625 180.301,58.0292 185.5,52C 180.177,51.5006 174.844,51.334 169.5,51.5C 169.5,48.8333 169.5,46.1667 169.5,43.5 Z"/></g>
<g><path style="opacity:1" fill="#6b6b6b" d="M 230.5,43.5 C 234.298,42.5166 238.298,42.1832 242.5,42.5C 242.828,54.3453 242.495,66.012 241.5,77.5C 241.5,66.1667 241.5,54.8333 241.5,43.5C 237.833,43.5 234.167,43.5 230.5,43.5 Z"/></g>
<g><path style="opacity:1" fill="#797979" d="M 296.5,43.5 C 292.833,43.5 289.167,43.5 285.5,43.5C 285.5,55.1667 285.5,66.8333 285.5,78.5C 284.505,66.6783 284.172,54.6783 284.5,42.5C 288.702,42.1832 292.702,42.5166 296.5,43.5 Z"/></g>
<g><path style="opacity:1" fill="#0d0d0d" d="M 219.5,51.5 C 228.32,50.7942 231.82,54.7942 230,63.5C 225.333,70.1667 220.667,70.1667 216,63.5C 214.593,58.6427 215.76,54.6427 219.5,51.5 Z"/></g>
<g><path style="opacity:0.918" fill="#a2e4bb" d="M 106.5,51.5 C 108.042,52.3007 109.708,52.634 111.5,52.5C 109.128,55.4763 107.461,55.143 106.5,51.5 Z"/></g>
<g><path style="opacity:1" fill="#090909" d="M 260.5,51.5 C 268.472,51.6364 271.972,55.6364 271,63.5C 269.171,69.1582 265.337,70.9916 259.5,69C 255.797,65.604 254.631,61.4374 256,56.5C 257.025,54.313 258.525,52.6464 260.5,51.5 Z"/></g>
<g><path style="opacity:0.361" fill="#abeaca" d="M 136.5,51.5 C 137.167,58.1667 137.833,64.8333 138.5,71.5C 138.586,72.4959 138.252,73.3292 137.5,74C 138.416,74.2784 139.082,74.7784 139.5,75.5C 138.1,76.0998 137.1,77.0998 136.5,78.5C 136.5,69.5 136.5,60.5 136.5,51.5 Z"/></g>
<g><path style="opacity:1" fill="#0c0c0c" d="M 203.5,59.5 C 204.837,63.1204 206.337,66.7871 208,70.5C 214.742,77.676 222.075,78.3427 230,72.5C 230.959,76.4214 229.792,79.5881 226.5,82C 220.948,83.196 215.781,82.3626 211,79.5C 209.374,81.9171 207.874,84.4171 206.5,87C 208.888,88.8605 211.554,90.1939 214.5,91C 208.509,91.4995 202.509,91.6662 196.5,91.5C 193.852,91.2615 192.018,89.9282 191,87.5C 190.366,84.4453 190.532,81.4453 191.5,78.5C 194.833,78.5 198.167,78.5 201.5,78.5C 201.5,75.5 201.5,72.5 201.5,69.5C 200.209,69.7373 199.209,69.404 198.5,68.5C 199.774,65.2402 201.44,62.2402 203.5,59.5 Z"/></g>
<g><path style="opacity:1" fill="#101010" d="M 357.5,63.5 C 360.833,63.5 364.167,63.5 367.5,63.5C 368.042,68.6274 365.709,71.294 360.5,71.5C 355.239,70.4643 354.239,67.7976 357.5,63.5 Z"/></g>
</svg>
