<?xml version="1.0" encoding="UTF-8"?>
<!DOCTYPE svg PUBLIC "-//W3C//DTD SVG 1.1//EN" "http://www.w3.org/Graphics/SVG/1.1/DTD/svg11.dtd">
<svg xmlns="http://www.w3.org/2000/svg" version="1.1" width="319px" height="166px" style="shape-rendering:geometricPrecision; text-rendering:geometricPrecision; image-rendering:optimizeQuality; fill-rule:evenodd; clip-rule:evenodd" xmlns:xlink="http://www.w3.org/1999/xlink">
<g><path style="opacity:1" fill="#060606" d="M 83.5,13.5 C 84.9063,13.0269 85.573,12.0269 85.5,10.5C 86.2905,9.59872 87.2905,8.93205 88.5,8.5C 90.0269,8.57298 91.0269,7.90632 91.5,6.5C 92.2625,5.73209 93.2625,5.23209 94.5,5C 166.833,4.33333 239.167,4.33333 311.5,5C 314.972,8.37333 315.805,12.2067 314,16.5C 289.748,57.3357 265.748,98.3357 242,139.5C 238.783,145.437 234.949,150.937 230.5,156C 227.211,158.478 223.544,160.144 219.5,161C 148.085,161.993 76.7515,161.66 5.5,160C 0.608064,155.496 0.441397,150.663 5,145.5C 30.941,101.272 57.1077,57.2715 83.5,13.5 Z"/></g>
<g><path style="opacity:0.898" fill="#7e7e7e" d="M 91.5,6.5 C 91.0269,7.90632 90.0269,8.57298 88.5,8.5C 88.9731,7.09368 89.9731,6.42702 91.5,6.5 Z"/></g>
<g><path style="opacity:0.906" fill="#7a7a7a" d="M 85.5,10.5 C 85.573,12.0269 84.9063,13.0269 83.5,13.5C 83.427,11.9731 84.0937,10.9731 85.5,10.5 Z"/></g>
<g><path style="opacity:1" fill="#fbfbfb" d="M 158.5,116.5 C 157.738,114.738 156.404,113.738 154.5,113.5C 140.096,95.5095 137.596,75.8429 147,54.5C 162.414,28.0262 184.581,20.1929 213.5,31C 233.468,39.1324 243.135,53.9657 242.5,75.5C 234.461,73.0426 226.461,70.376 218.5,67.5C 211.547,52.3597 199.881,46.8597 183.5,51C 170.346,59.1413 164.513,70.9747 166,86.5C 172.682,103.926 185.182,110.426 203.5,106C 207.41,104.093 210.744,101.427 213.5,98C 204.06,94.2983 194.56,90.7983 185,87.5C 186.102,81.6902 187.936,76.0235 190.5,70.5C 207.273,76.0544 223.94,81.8878 240.5,88C 237.808,95.0749 235.308,102.242 233,109.5C 214.147,130.603 191.98,134.77 166.5,122C 163.953,119.946 161.286,118.113 158.5,116.5 Z"/></g>
<g><path style="opacity:1" fill="#00bb60" d="M 154.5,113.5 C 156.404,113.738 157.738,114.738 158.5,116.5C 159.207,119.786 159.54,123.119 159.5,126.5C 159.815,129.211 159.148,131.544 157.5,133.5C 138.814,135.336 120.148,137.336 101.5,139.5C 97.4196,104.522 93.4196,69.5222 89.5,34.5C 98.1486,33.6132 106.815,32.9465 115.5,32.5C 118.368,60.5141 121.368,88.5141 124.5,116.5C 134.517,115.665 144.517,114.665 154.5,113.5 Z"/></g>
<g><path style="opacity:1" fill="#006838" d="M 159.5,126.5 C 160.468,128.607 160.802,130.941 160.5,133.5C 159.5,133.5 158.5,133.5 157.5,133.5C 159.148,131.544 159.815,129.211 159.5,126.5 Z"/></g>
</svg>
